<svg id="face-bluring" xmlns="http://www.w3.org/2000/svg" viewBox="0 0 20.971 20.971">
  <circle id="Ellipse_29" data-name="Ellipse 29" cx="9" cy="9" r="9" transform="translate(1.485 1.485)" fill="#a3a0fb"/>
  <path id="Path_1115" data-name="Path 1115" d="M71.627,170.862a1.3,1.3,0,1,0,1.3,1.3A1.3,1.3,0,0,0,71.627,170.862Z" transform="translate(-67.449 -163.864)" fill="#43425d"/>
  <path id="Path_1116" data-name="Path 1116" d="M.964,178.988a.964.964,0,1,0,.964.964A.965.965,0,0,0,.964,178.988Z" transform="translate(0 -171.657)" fill="#43425d"/>
  <path id="Path_1117" data-name="Path 1117" d="M263.1,154.167a1.981,1.981,0,1,0,1.981,1.981A1.983,1.983,0,0,0,263.1,154.167Z" transform="translate(-250.423 -147.853)" fill="#43425d"/>
  <circle id="Ellipse_23" data-name="Ellipse 23" cx="1.981" cy="1.981" r="1.981" transform="translate(5.912 6.819) rotate(-13.3)" fill="#43425d"/>
  <path id="Path_1118" data-name="Path 1118" d="M263.1,261.117a1.981,1.981,0,1,0,1.981,1.981A1.983,1.983,0,0,0,263.1,261.117Z" transform="translate(-250.423 -250.422)" fill="#43425d"/>
  <path id="Path_1119" data-name="Path 1119" d="M379.641,170.862a1.3,1.3,0,1,0,1.3,1.3A1.3,1.3,0,0,0,379.641,170.862Z" transform="translate(-362.848 -163.864)" fill="#43425d"/>
  <path id="Path_1120" data-name="Path 1120" d="M465.89,180.916a.964.964,0,1,0-.964-.964A.965.965,0,0,0,465.89,180.916Z" transform="translate(-445.883 -171.657)" fill="#43425d"/>
  <circle id="Ellipse_24" data-name="Ellipse 24" cx="1.981" cy="1.981" r="1.981" transform="translate(5.492 12.675) rotate(-45)" fill="#43425d"/>
  <path id="Path_1121" data-name="Path 1121" d="M71.627,277.813a1.3,1.3,0,1,0,1.3,1.3A1.3,1.3,0,0,0,71.627,277.813Z" transform="translate(-67.449 -266.434)" fill="#43425d"/>
  <path id="Path_1122" data-name="Path 1122" d="M.964,285.938a.964.964,0,1,0,.964.964A.965.965,0,0,0,.964,285.938Z" transform="translate(0 -274.226)" fill="#43425d"/>
  <path id="Path_1123" data-name="Path 1123" d="M379.641,277.813a1.3,1.3,0,1,0,1.3,1.3A1.3,1.3,0,0,0,379.641,277.813Z" transform="translate(-362.848 -266.434)" fill="#43425d"/>
  <path id="Path_1124" data-name="Path 1124" d="M465.89,285.938a.964.964,0,1,0,.964.964A.965.965,0,0,0,465.89,285.938Z" transform="translate(-445.883 -274.226)" fill="#43425d"/>
  <path id="Path_1125" data-name="Path 1125" d="M279.11,72.924a1.3,1.3,0,1,0-1.3-1.3A1.3,1.3,0,0,0,279.11,72.924Z" transform="translate(-266.434 -67.449)" fill="#43425d"/>
  <circle id="Ellipse_25" data-name="Ellipse 25" cx="1.297" cy="1.297" r="1.297" transform="translate(15.496 2.881)" fill="#43425d"/>
  <path id="Path_1126" data-name="Path 1126" d="M71.627,378.344a1.3,1.3,0,1,0,1.3,1.3A1.3,1.3,0,0,0,71.627,378.344Z" transform="translate(-67.449 -362.848)" fill="#43425d"/>
  <path id="Path_1127" data-name="Path 1127" d="M379.641,378.344a1.3,1.3,0,1,0,1.3,1.3A1.3,1.3,0,0,0,379.641,378.344Z" transform="translate(-362.848 -362.848)" fill="#43425d"/>
  <path id="Path_1128" data-name="Path 1128" d="M71.627,70.331a1.3,1.3,0,1,0,1.3,1.3A1.3,1.3,0,0,0,71.627,70.331Z" transform="translate(-67.449 -67.45)" fill="#43425d"/>
  <circle id="Ellipse_26" data-name="Ellipse 26" cx="0.964" cy="0.964" r="0.964" transform="translate(11.712 0)" fill="#43425d"/>
  <path id="Path_1129" data-name="Path 1129" d="M279.11,378.344a1.3,1.3,0,1,0,1.3,1.3A1.3,1.3,0,0,0,279.11,378.344Z" transform="translate(-266.434 -362.848)" fill="#43425d"/>
  <circle id="Ellipse_27" data-name="Ellipse 27" cx="0.964" cy="0.964" r="0.964" transform="translate(11.712 19.043)" fill="#43425d"/>
  <path id="Path_1130" data-name="Path 1130" d="M172.158,72.924a1.3,1.3,0,1,0-1.3-1.3A1.3,1.3,0,0,0,172.158,72.924Z" transform="translate(-163.863 -67.449)" fill="#43425d"/>
  <path id="Path_1131" data-name="Path 1131" d="M179.951,1.928a.964.964,0,1,0-.964-.964A.965.965,0,0,0,179.951,1.928Z" transform="translate(-171.656 0)" fill="#43425d"/>
  <path id="Path_1132" data-name="Path 1132" d="M172.158,378.344a1.3,1.3,0,1,0,1.3,1.3A1.3,1.3,0,0,0,172.158,378.344Z" transform="translate(-163.863 -362.848)" fill="#43425d"/>
  <path id="Path_1133" data-name="Path 1133" d="M179.951,464.926a.964.964,0,1,0,.964.964A.965.965,0,0,0,179.951,464.926Z" transform="translate(-171.656 -445.883)" fill="#43425d"/>
</svg>
