<svg xmlns="http://www.w3.org/2000/svg" viewBox="0 0 16.859 21.776">
  <g id="fire-detection" transform="translate(-8 -1)">
    <path id="Path_1142" data-name="Path 1142" d="M25.413,16.752c0-5.764-5.847-12.18-7.367-13.752h-.72c-1.52,1.571-7.367,7.988-7.367,13.752a7.675,7.675,0,0,0,3.8,6.619h.425a4.1,4.1,0,0,1-.66-2.234c0-3.565,4.16-7.6,4.16-7.6s4.159,4.032,4.159,7.6a4.1,4.1,0,0,1-.659,2.234h.425a7.675,7.675,0,0,0,3.8-6.619Z" transform="translate(-1.271 -1.298)" fill="#a3a0fb" fill-rule="evenodd"/>
    <path id="Path_1143" data-name="Path 1143" d="M17.073,1H15.756C12.462,4.592,8.377,9.609,8,14.752H9.412C9.85,9.623,14.867,3.975,16.355,2.4h.12c1.556,1.642,6.977,7.745,6.977,13.049a6.994,6.994,0,0,1-2.217,5.081,4.779,4.779,0,0,0,.051-.7c0-3.083-2.656-6.413-4.87-8.576-2.213,2.163-4.871,5.493-4.871,8.576a4.833,4.833,0,0,0,.051.7,7.016,7.016,0,0,1-2.178-4.379H8a8.981,8.981,0,0,0,4.287,6.619H14.2c-.431-.786-1.25-1.5-1.25-2.936,0-2.527,2.406-5.428,3.464-6.582,1.059,1.153,3.463,4.05,3.463,6.582,0,1.43-.808,2.129-1.251,2.936h1.911a8.492,8.492,0,0,0,4.32-7.322C24.859,10.193,20.618,4.868,17.073,1Z" fill="#43425d"/>
  </g>
</svg>
