<svg viewBox="0 0 128 128" xmlns="http://www.w3.org/2000/svg"><g><g><path d="m98.605 109.964-2.248-.659a4.043 4.043 0 0 0 -4.807 2.185l-2.606 5.646a4.043 4.043 0 0 1 -5.54 1.889l-4.453-2.325a4.042 4.042 0 0 0 -5.656 2.167 4.053 4.053 0 0 1 -4.937 2.465c-11.2-3.308-20.044-7.871-26.778-13.34-12.08-9.792-17.389-22.487-17.389-36.092v-29.374a36.027 36.027 0 0 1 36.027-36.026 36.026 36.026 0 0 1 36.026 36.026v29.374c0 11.794 2.324 23.083 7.113 32.379a4.036 4.036 0 0 1 -4.752 5.685z" fill="#eaeaf0"/><g fill="#575f64"><ellipse cx="45.778" cy="45.964" rx="6" ry="8.333"/><ellipse cx="74.581" cy="45.964" rx="6" ry="8.333"/></g></g><g fill="#0d0614"><path d="m96.244 57.083a1.75 1.75 0 0 0 -1.75 1.75v4.667a1.75 1.75 0 1 0 3.5 0v-4.667a1.75 1.75 0 0 0 -1.75-1.75z"/><path d="m25.941 71.9v-29.374a34.277 34.277 0 0 1 68.553 0v9.141a1.75 1.75 0 0 0 3.5 0v-9.141a37.777 37.777 0 0 0 -75.553 0v29.374a46.982 46.982 0 0 0 5.669 22.862 1.75 1.75 0 1 0 3.069-1.683 43.518 43.518 0 0 1 -5.238-21.179z"/><path d="m104.913 103.481c-4.526-8.781-6.919-19.706-6.919-31.581v-1.37a1.75 1.75 0 0 0 -3.5 0v1.37c0 12.428 2.527 23.9 7.307 33.18a2.2 2.2 0 0 1 -.273 2.45 2.276 2.276 0 0 1 -2.43.752l-2.248-.659a5.831 5.831 0 0 0 -6.889 3.13l-2.606 5.647a2.292 2.292 0 0 1 -3.141 1.072l-4.454-2.322a5.793 5.793 0 0 0 -8.1 3.1 2.308 2.308 0 0 1 -2.8 1.4c-10.574-3.124-19.379-7.505-26.171-13.022a49.541 49.541 0 0 1 -6.27-6.045 1.75 1.75 0 1 0 -2.647 2.289 53.042 53.042 0 0 0 6.711 6.474c7.151 5.809 16.366 10.405 27.386 13.661a5.754 5.754 0 0 0 1.627.236 5.824 5.824 0 0 0 5.444-3.767 2.292 2.292 0 0 1 3.207-1.229l4.454 2.324a5.793 5.793 0 0 0 7.938-2.708l2.606-5.645a2.31 2.31 0 0 1 2.726-1.24l2.248.66a5.736 5.736 0 0 0 6.114-1.883 5.66 5.66 0 0 0 .68-6.274z"/><path d="m34.229 85.372a38.99 38.99 0 0 1 -2.288-13.472 1.75 1.75 0 0 0 -3.5 0 42.522 42.522 0 0 0 2.5 14.674 1.75 1.75 0 0 0 3.287-1.2z"/><path d="m38.028 45.964c0 5.654 3.405 10.083 7.75 10.083s7.75-4.429 7.75-10.083-3.4-10.083-7.75-10.083-7.75 4.429-7.75 10.083zm12 0c0 3.569-1.946 6.583-4.25 6.583s-4.25-3.014-4.25-6.583 1.947-6.583 4.25-6.583 4.25 3.019 4.25 6.583z"/><path d="m66.831 45.964c0 5.654 3.4 10.083 7.75 10.083s7.75-4.429 7.75-10.083-3.4-10.083-7.75-10.083-7.75 4.429-7.75 10.083zm12 0c0 3.569-1.946 6.583-4.25 6.583s-4.25-3.014-4.25-6.583 1.946-6.583 4.25-6.583 4.25 3.019 4.25 6.583z"/></g></g></svg>
