<svg xmlns="http://www.w3.org/2000/svg" viewBox="0 0 19.257 19.258">
  <g id="people-counting" transform="translate(-1 -0.997)">
    <path id="Path_1144" data-name="Path 1144" d="M26.15,36.672c0-3.648-2.151-6.605-4.8-6.605s-4.8,2.957-4.8,6.605a8.626,8.626,0,0,0,.529,3h8.551a8.626,8.626,0,0,0,.529-3Z" transform="translate(-10.714 -20.041)" fill="#a3a0fb"/>
    <circle id="Ellipse_28" data-name="Ellipse 28" cx="4.203" cy="4.203" r="4.203" transform="translate(6.428 1.619)" fill="#a3a0fb"/>
    <path id="Path_1145" data-name="Path 1145" d="M20.244,17.771a6.188,6.188,0,0,0-2.271-5.459A3.84,3.84,0,0,0,15.957,5.2a3.761,3.761,0,0,0-.538.043,4.822,4.822,0,0,0-9.576,0A3.76,3.76,0,0,0,5.306,5.2a3.847,3.847,0,0,0-3.79,3.223H2.782a2.6,2.6,0,0,1,2.524-1.98,2.561,2.561,0,0,1,.554.064A4.82,4.82,0,0,0,7.811,9.73a2.6,2.6,0,0,1-5.03-.062H1.516a3.854,3.854,0,0,0,1.773,2.646A6.119,6.119,0,0,0,1,17.332a7.448,7.448,0,0,0,.6,2.923H19.667a8.693,8.693,0,0,0,.4-1.242h-4.31a9.336,9.336,0,0,0,.3-2.381,9.064,9.064,0,0,0-.739-3.638,2.1,2.1,0,0,1,.64-.1c2.023,0,3.205,2.591,3.048,4.881ZM5.2,16.632a9.349,9.349,0,0,0,.3,2.381H2.476a6.042,6.042,0,0,1-.233-1.681c0-2.45,1.374-4.442,3.063-4.442a2.1,2.1,0,0,1,.64.1A9.063,9.063,0,0,0,5.2,16.632ZM7.048,5.823a3.583,3.583,0,1,1,3.583,3.583A3.583,3.583,0,0,1,7.048,5.823Zm7.415,13.19H6.8a8.034,8.034,0,0,1-.352-2.381c0-3.3,1.877-5.984,4.184-5.984s4.184,2.685,4.184,5.984a8.027,8.027,0,0,1-.353,2.381Zm1.494-7.366A2.6,2.6,0,0,1,13.452,9.73,4.822,4.822,0,0,0,15.4,6.508a2.544,2.544,0,0,1,.554-.064,2.6,2.6,0,1,1,0,5.2Z" fill="#43425d"/>
  </g>
</svg>
