<svg xmlns="http://www.w3.org/2000/svg" viewBox="0 0 35.731 32.18">
  <g id="webcam" transform="translate(-0.134 -1.91)">
    <path id="Path_171" data-name="Path 171" d="M34.9,20.355c-3.782-5.791-3.38-11.727-5.2-14.518s-7.256-7.6-20.093.782S.036,24.119,2.042,27.188C11.43,41.56,41.6,30.611,34.9,20.355Z" fill="#efefef"/>
    <path id="Path_172" data-name="Path 172" d="M32.151,5.458a1.5,1.5,0,1,1,1.5-1.5A1.5,1.5,0,0,1,32.151,5.458Zm0-2a.5.5,0,1,0,.5.5A.5.5,0,0,0,32.151,3.458Z" fill="#a4afc1"/>
    <circle id="Ellipse_7" data-name="Ellipse 7" cx="9.25" cy="9.25" r="9.25" transform="translate(8.75 6.75)" fill="#f3f3f1"/>
    <circle id="Ellipse_8" data-name="Ellipse 8" cx="4.25" cy="4.25" r="4.25" transform="translate(13.75 13.75)" fill="#a3a0fb"/>
    <path id="Path_173" data-name="Path 173" d="M13.75,8l.906,1.359a2,2,0,0,0,1.664.891h3.359a2,2,0,0,0,1.664-.891L22.25,8a7.848,7.848,0,0,0-8.5,0Z" fill="#a3a0fb"/>
    <path id="Path_174" data-name="Path 174" d="M19,25.19a8.262,8.262,0,0,1-1,.06,9.25,9.25,0,0,1,0-18.5,8.262,8.262,0,0,1,1,.06,9.244,9.244,0,0,0,0,18.38Z" fill="#d5dbe1"/>
    <path id="Path_175" data-name="Path 175" d="M19,22.13a4.088,4.088,0,0,1-1,.12,4.25,4.25,0,0,1,0-8.5,4.088,4.088,0,0,1,1,.12,4.249,4.249,0,0,0,0,8.26Z" fill="#8581ff"/>
    <path id="Path_176" data-name="Path 176" d="M18.32,10.25h-2a1.981,1.981,0,0,1-1.66-.89L13.75,8a8.413,8.413,0,0,1,5.34-1.18A9.715,9.715,0,0,0,15.75,8l.91,1.36A1.981,1.981,0,0,0,18.32,10.25Z" fill="#8581ff"/>
    <path id="Path_177" data-name="Path 177" d="M18,26A10,10,0,1,1,28,16,10.011,10.011,0,0,1,18,26ZM18,7.5A8.5,8.5,0,1,0,26.5,16,8.51,8.51,0,0,0,18,7.5Z"/>
    <path id="Path_178" data-name="Path 178" d="M18,23a5,5,0,1,1,5-5A5.006,5.006,0,0,1,18,23Zm0-8.5A3.5,3.5,0,1,0,21.5,18,3.5,3.5,0,0,0,18,14.5Z"/>
    <circle id="Ellipse_9" data-name="Ellipse 9" cx="1" cy="1" r="1" transform="translate(17 17)"/>
    <path id="Path_179" data-name="Path 179" d="M19.68,11H16.32a2.745,2.745,0,0,1-2.288-1.225l-.906-1.359,1.248-.832.906,1.359a1.247,1.247,0,0,0,1.04.557h3.359a1.246,1.246,0,0,0,1.04-.557l.906-1.359,1.248.832-.906,1.359A2.742,2.742,0,0,1,19.68,11Z"/>
    <path id="Path_180" data-name="Path 180" d="M12.416,29.874l-.832-1.248a4.293,4.293,0,0,0,1.916-3.58v-.3H15v.3A5.791,5.791,0,0,1,12.416,29.874Z"/>
    <path id="Path_181" data-name="Path 181" d="M23.584,29.874A5.791,5.791,0,0,1,21,25.046v-.3h1.5v.3a4.293,4.293,0,0,0,1.916,3.58Z"/>
    <path id="Path_182" data-name="Path 182" d="M10.75,28.5h14.5V30H10.75Z"/>
  </g>
</svg>
