<?xml version="1.0" encoding="UTF-8" standalone="no"?><svg xmlns="http://www.w3.org/2000/svg" xmlns:xlink="http://www.w3.org/1999/xlink"><symbol id="icon_dangerous" xmlns="http://www.w3.org/2000/svg" version="1.1" viewBox="-38 0 511 511.99956"><g><path d="M 413.476562 341.910156 C 399.714844 379.207031 378.902344 411.636719 351.609375 438.289062 C 320.542969 468.625 279.863281 492.730469 230.699219 509.925781 C 229.085938 510.488281 227.402344 510.949219 225.710938 511.289062 C 223.476562 511.730469 221.203125 511.96875 218.949219 512 L 218.507812 512 C 216.105469 512 213.691406 511.757812 211.296875 511.289062 C 209.605469 510.949219 207.945312 510.488281 206.339844 509.9375 C 157.117188 492.769531 116.386719 468.675781 85.289062 438.339844 C 57.984375 411.6875 37.175781 379.277344 23.433594 341.980469 C -1.554688 274.167969 -0.132812 199.464844 1.011719 139.433594 L 1.03125 138.511719 C 1.261719 133.554688 1.410156 128.347656 1.492188 122.597656 C 1.910156 94.367188 24.355469 71.011719 52.589844 69.4375 C 111.457031 66.152344 156.996094 46.953125 195.90625 9.027344 L 196.246094 8.714844 C 202.707031 2.789062 210.847656 -0.117188 218.949219 0.00390625 C 226.761719 0.105469 234.542969 3.007812 240.773438 8.714844 L 241.105469 9.027344 C 280.023438 46.953125 325.5625 66.152344 384.429688 69.4375 C 412.664062 71.011719 435.109375 94.367188 435.527344 122.597656 C 435.609375 128.386719 435.757812 133.585938 435.988281 138.511719 L 436 138.902344 C 437.140625 199.046875 438.554688 273.898438 413.476562 341.910156 Z M 413.476562 341.910156" style="stroke:none;fill-rule:nonzero;fill:rgb(100%,50.588235%,42.352941%);fill-opacity:1;"></path><path d="M 413.476562 341.910156 C 399.714844 379.207031 378.902344 411.636719 351.609375 438.289062 C 320.542969 468.625 279.863281 492.730469 230.699219 509.925781 C 229.085938 510.488281 227.402344 510.949219 225.710938 511.289062 C 223.476562 511.730469 221.203125 511.96875 218.949219 512 L 218.949219 0.00390625 C 226.761719 0.105469 234.542969 3.007812 240.773438 8.714844 L 241.105469 9.027344 C 280.023438 46.953125 325.5625 66.152344 384.429688 69.4375 C 412.664062 71.011719 435.109375 94.367188 435.527344 122.597656 C 435.609375 128.386719 435.757812 133.585938 435.988281 138.511719 L 436 138.902344 C 437.140625 199.046875 438.554688 273.898438 413.476562 341.910156 Z M 413.476562 341.910156" style="stroke:none;fill-rule:nonzero;fill:rgb(93.72549%,24.313725%,20.784314%);fill-opacity:1;"></path><path d="M 346.101562 256 C 346.101562 326.207031 289.097656 383.355469 218.949219 383.605469 L 218.5 383.605469 C 148.144531 383.605469 90.894531 326.359375 90.894531 256 C 90.894531 185.644531 148.144531 128.398438 218.5 128.398438 L 218.949219 128.398438 C 289.097656 128.648438 346.101562 185.796875 346.101562 256 Z M 346.101562 256" style="stroke:none;fill-rule:nonzero;fill:rgb(100%,100%,100%);fill-opacity:1;"></path><path d="M 346.101562 256 C 346.101562 326.207031 289.097656 383.355469 218.949219 383.605469 L 218.949219 128.398438 C 289.097656 128.648438 346.101562 185.796875 346.101562 256 Z M 346.101562 256" style="stroke:none;fill-rule:nonzero;fill:rgb(88.235294%,92.156863%,94.117647%);fill-opacity:1;"></path><path d="M 264.523438 283.332031 C 270.382812 289.191406 270.382812 298.707031 264.523438 304.574219 C 261.589844 307.507812 257.742188 308.972656 253.898438 308.972656 C 250.050781 308.972656 246.207031 307.507812 243.269531 304.574219 L 218.953125 280.25 L 194.628906 304.574219 C 191.691406 307.507812 187.847656 308.972656 184 308.972656 C 180.15625 308.972656 176.320312 307.507812 173.386719 304.574219 C 167.515625 298.707031 167.515625 289.191406 173.386719 283.332031 L 197.703125 259.007812 L 173.386719 234.679688 C 167.515625 228.820312 167.515625 219.304688 173.386719 213.4375 C 179.242188 207.566406 188.757812 207.566406 194.628906 213.4375 L 218.953125 237.765625 L 243.269531 213.4375 C 249.140625 207.566406 258.65625 207.566406 264.523438 213.4375 C 270.382812 219.304688 270.382812 228.820312 264.523438 234.679688 L 240.195312 259.007812 Z M 264.523438 283.332031" style="stroke:none;fill-rule:nonzero;fill:rgb(70.588235%,82.352941%,84.313725%);fill-opacity:1;"></path><path d="M 264.523438 283.332031 C 270.382812 289.191406 270.382812 298.707031 264.523438 304.574219 C 261.589844 307.507812 257.742188 308.972656 253.898438 308.972656 C 250.050781 308.972656 246.207031 307.507812 243.269531 304.574219 L 218.953125 280.25 L 218.953125 237.765625 L 243.269531 213.4375 C 249.140625 207.566406 258.65625 207.566406 264.523438 213.4375 C 270.382812 219.304688 270.382812 228.820312 264.523438 234.679688 L 240.195312 259.007812 Z M 264.523438 283.332031" style="stroke:none;fill-rule:nonzero;fill:rgb(43.529412%,64.705882%,66.666667%);fill-opacity:1;"></path></g></symbol><symbol id="icon_safe" xmlns="http://www.w3.org/2000/svg" version="1.1" viewBox="-38 0 511 511.99956"><g><path d="M 413.476562 341.910156 C 399.714844 379.207031 378.902344 411.636719 351.609375 438.289062 C 320.542969 468.625 279.863281 492.730469 230.699219 509.925781 C 229.085938 510.488281 227.402344 510.949219 225.710938 511.289062 C 223.476562 511.730469 221.203125 511.96875 218.949219 512 L 218.507812 512 C 216.105469 512 213.691406 511.757812 211.296875 511.289062 C 209.605469 510.949219 207.945312 510.488281 206.339844 509.9375 C 157.117188 492.769531 116.386719 468.675781 85.289062 438.339844 C 57.984375 411.6875 37.175781 379.277344 23.433594 341.980469 C -1.554688 274.167969 -0.132812 199.464844 1.011719 139.433594 L 1.03125 138.511719 C 1.261719 133.554688 1.410156 128.347656 1.492188 122.597656 C 1.910156 94.367188 24.355469 71.011719 52.589844 69.4375 C 111.457031 66.152344 156.996094 46.953125 195.90625 9.027344 L 196.246094 8.714844 C 202.707031 2.789062 210.847656 -0.117188 218.949219 0.00390625 C 226.761719 0.105469 234.542969 3.007812 240.773438 8.714844 L 241.105469 9.027344 C 280.023438 46.953125 325.5625 66.152344 384.429688 69.4375 C 412.664062 71.011719 435.109375 94.367188 435.527344 122.597656 C 435.609375 128.386719 435.757812 133.585938 435.988281 138.511719 L 436 138.902344 C 437.140625 199.046875 438.554688 273.898438 413.476562 341.910156 Z M 413.476562 341.910156" style="stroke:none;fill-rule:nonzero;fill:rgb(0%,86.666667%,50.196078%);fill-opacity:1;"></path><path d="M 413.476562 341.910156 C 399.714844 379.207031 378.902344 411.636719 351.609375 438.289062 C 320.542969 468.625 279.863281 492.730469 230.699219 509.925781 C 229.085938 510.488281 227.402344 510.949219 225.710938 511.289062 C 223.476562 511.730469 221.203125 511.96875 218.949219 512 L 218.949219 0.00390625 C 226.761719 0.105469 234.542969 3.007812 240.773438 8.714844 L 241.105469 9.027344 C 280.023438 46.953125 325.5625 66.152344 384.429688 69.4375 C 412.664062 71.011719 435.109375 94.367188 435.527344 122.597656 C 435.609375 128.386719 435.757812 133.585938 435.988281 138.511719 L 436 138.902344 C 437.140625 199.046875 438.554688 273.898438 413.476562 341.910156 Z M 413.476562 341.910156" style="stroke:none;fill-rule:nonzero;fill:rgb(0%,66.666667%,38.823529%);fill-opacity:1;"></path><path d="M 346.101562 256 C 346.101562 326.207031 289.097656 383.355469 218.949219 383.605469 L 218.5 383.605469 C 148.144531 383.605469 90.894531 326.359375 90.894531 256 C 90.894531 185.644531 148.144531 128.398438 218.5 128.398438 L 218.949219 128.398438 C 289.097656 128.648438 346.101562 185.796875 346.101562 256 Z M 346.101562 256" style="stroke:none;fill-rule:nonzero;fill:rgb(100%,100%,100%);fill-opacity:1;"></path><path d="M 346.101562 256 C 346.101562 326.207031 289.097656 383.355469 218.949219 383.605469 L 218.949219 128.398438 C 289.097656 128.648438 346.101562 185.796875 346.101562 256 Z M 346.101562 256" style="stroke:none;fill-rule:nonzero;fill:rgb(88.235294%,92.156863%,94.117647%);fill-opacity:1;"></path><path d="M 276.417969 237.625 L 218.949219 295.101562 L 206.53125 307.519531 C 203.597656 310.453125 199.75 311.917969 195.90625 311.917969 C 192.058594 311.917969 188.214844 310.453125 185.277344 307.519531 L 158.578125 280.808594 C 152.710938 274.941406 152.710938 265.4375 158.578125 259.566406 C 164.4375 253.699219 173.953125 253.699219 179.820312 259.566406 L 195.90625 275.652344 L 255.175781 216.382812 C 261.042969 210.511719 270.558594 210.511719 276.417969 216.382812 C 282.285156 222.25 282.285156 231.765625 276.417969 237.625 Z M 276.417969 237.625" style="stroke:none;fill-rule:nonzero;fill:rgb(70.588235%,82.352941%,84.313725%);fill-opacity:1;"></path><path d="M 276.417969 237.625 L 218.949219 295.101562 L 218.949219 252.605469 L 255.175781 216.382812 C 261.042969 210.511719 270.558594 210.511719 276.417969 216.382812 C 282.285156 222.25 282.285156 231.765625 276.417969 237.625 Z M 276.417969 237.625" style="stroke:none;fill-rule:nonzero;fill:rgb(43.529412%,64.705882%,66.666667%);fill-opacity:1;"></path></g></symbol><symbol id="icon_ghost" viewBox="0 0 128 128" xmlns="http://www.w3.org/2000/svg"><g><g><path d="m98.605 109.964-2.248-.659a4.043 4.043 0 0 0 -4.807 2.185l-2.606 5.646a4.043 4.043 0 0 1 -5.54 1.889l-4.453-2.325a4.042 4.042 0 0 0 -5.656 2.167 4.053 4.053 0 0 1 -4.937 2.465c-11.2-3.308-20.044-7.871-26.778-13.34-12.08-9.792-17.389-22.487-17.389-36.092v-29.374a36.027 36.027 0 0 1 36.027-36.026 36.026 36.026 0 0 1 36.026 36.026v29.374c0 11.794 2.324 23.083 7.113 32.379a4.036 4.036 0 0 1 -4.752 5.685z" fill="#eaeaf0"></path><g fill="#575f64"><ellipse cx="45.778" cy="45.964" rx="6" ry="8.333"></ellipse><ellipse cx="74.581" cy="45.964" rx="6" ry="8.333"></ellipse></g></g><g fill="#0d0614"><path d="m96.244 57.083a1.75 1.75 0 0 0 -1.75 1.75v4.667a1.75 1.75 0 1 0 3.5 0v-4.667a1.75 1.75 0 0 0 -1.75-1.75z"></path><path d="m25.941 71.9v-29.374a34.277 34.277 0 0 1 68.553 0v9.141a1.75 1.75 0 0 0 3.5 0v-9.141a37.777 37.777 0 0 0 -75.553 0v29.374a46.982 46.982 0 0 0 5.669 22.862 1.75 1.75 0 1 0 3.069-1.683 43.518 43.518 0 0 1 -5.238-21.179z"></path><path d="m104.913 103.481c-4.526-8.781-6.919-19.706-6.919-31.581v-1.37a1.75 1.75 0 0 0 -3.5 0v1.37c0 12.428 2.527 23.9 7.307 33.18a2.2 2.2 0 0 1 -.273 2.45 2.276 2.276 0 0 1 -2.43.752l-2.248-.659a5.831 5.831 0 0 0 -6.889 3.13l-2.606 5.647a2.292 2.292 0 0 1 -3.141 1.072l-4.454-2.322a5.793 5.793 0 0 0 -8.1 3.1 2.308 2.308 0 0 1 -2.8 1.4c-10.574-3.124-19.379-7.505-26.171-13.022a49.541 49.541 0 0 1 -6.27-6.045 1.75 1.75 0 1 0 -2.647 2.289 53.042 53.042 0 0 0 6.711 6.474c7.151 5.809 16.366 10.405 27.386 13.661a5.754 5.754 0 0 0 1.627.236 5.824 5.824 0 0 0 5.444-3.767 2.292 2.292 0 0 1 3.207-1.229l4.454 2.324a5.793 5.793 0 0 0 7.938-2.708l2.606-5.645a2.31 2.31 0 0 1 2.726-1.24l2.248.66a5.736 5.736 0 0 0 6.114-1.883 5.66 5.66 0 0 0 .68-6.274z"></path><path d="m34.229 85.372a38.99 38.99 0 0 1 -2.288-13.472 1.75 1.75 0 0 0 -3.5 0 42.522 42.522 0 0 0 2.5 14.674 1.75 1.75 0 0 0 3.287-1.2z"></path><path d="m38.028 45.964c0 5.654 3.405 10.083 7.75 10.083s7.75-4.429 7.75-10.083-3.4-10.083-7.75-10.083-7.75 4.429-7.75 10.083zm12 0c0 3.569-1.946 6.583-4.25 6.583s-4.25-3.014-4.25-6.583 1.947-6.583 4.25-6.583 4.25 3.019 4.25 6.583z"></path><path d="m66.831 45.964c0 5.654 3.4 10.083 7.75 10.083s7.75-4.429 7.75-10.083-3.4-10.083-7.75-10.083-7.75 4.429-7.75 10.083zm12 0c0 3.569-1.946 6.583-4.25 6.583s-4.25-3.014-4.25-6.583 1.946-6.583 4.25-6.583 4.25 3.019 4.25 6.583z"></path></g></g></symbol><symbol id="icon_fire-detection" xmlns="http://www.w3.org/2000/svg" viewBox="0 0 16.859 21.776"><g transform="translate(-8 -1)"><path data-name="Path 1142" d="M25.413,16.752c0-5.764-5.847-12.18-7.367-13.752h-.72c-1.52,1.571-7.367,7.988-7.367,13.752a7.675,7.675,0,0,0,3.8,6.619h.425a4.1,4.1,0,0,1-.66-2.234c0-3.565,4.16-7.6,4.16-7.6s4.159,4.032,4.159,7.6a4.1,4.1,0,0,1-.659,2.234h.425a7.675,7.675,0,0,0,3.8-6.619Z" transform="translate(-1.271 -1.298)" fill="#a3a0fb" fill-rule="evenodd"></path><path data-name="Path 1143" d="M17.073,1H15.756C12.462,4.592,8.377,9.609,8,14.752H9.412C9.85,9.623,14.867,3.975,16.355,2.4h.12c1.556,1.642,6.977,7.745,6.977,13.049a6.994,6.994,0,0,1-2.217,5.081,4.779,4.779,0,0,0,.051-.7c0-3.083-2.656-6.413-4.87-8.576-2.213,2.163-4.871,5.493-4.871,8.576a4.833,4.833,0,0,0,.051.7,7.016,7.016,0,0,1-2.178-4.379H8a8.981,8.981,0,0,0,4.287,6.619H14.2c-.431-.786-1.25-1.5-1.25-2.936,0-2.527,2.406-5.428,3.464-6.582,1.059,1.153,3.463,4.05,3.463,6.582,0,1.43-.808,2.129-1.251,2.936h1.911a8.492,8.492,0,0,0,4.32-7.322C24.859,10.193,20.618,4.868,17.073,1Z" fill="#43425d"></path></g></symbol><symbol id="icon_people-counting" xmlns="http://www.w3.org/2000/svg" viewBox="0 0 19.257 19.258"><g transform="translate(-1 -0.997)"><path data-name="Path 1144" d="M26.15,36.672c0-3.648-2.151-6.605-4.8-6.605s-4.8,2.957-4.8,6.605a8.626,8.626,0,0,0,.529,3h8.551a8.626,8.626,0,0,0,.529-3Z" transform="translate(-10.714 -20.041)" fill="#a3a0fb"></path><circle data-name="Ellipse 28" cx="4.203" cy="4.203" r="4.203" transform="translate(6.428 1.619)" fill="#a3a0fb"></circle><path data-name="Path 1145" d="M20.244,17.771a6.188,6.188,0,0,0-2.271-5.459A3.84,3.84,0,0,0,15.957,5.2a3.761,3.761,0,0,0-.538.043,4.822,4.822,0,0,0-9.576,0A3.76,3.76,0,0,0,5.306,5.2a3.847,3.847,0,0,0-3.79,3.223H2.782a2.6,2.6,0,0,1,2.524-1.98,2.561,2.561,0,0,1,.554.064A4.82,4.82,0,0,0,7.811,9.73a2.6,2.6,0,0,1-5.03-.062H1.516a3.854,3.854,0,0,0,1.773,2.646A6.119,6.119,0,0,0,1,17.332a7.448,7.448,0,0,0,.6,2.923H19.667a8.693,8.693,0,0,0,.4-1.242h-4.31a9.336,9.336,0,0,0,.3-2.381,9.064,9.064,0,0,0-.739-3.638,2.1,2.1,0,0,1,.64-.1c2.023,0,3.205,2.591,3.048,4.881ZM5.2,16.632a9.349,9.349,0,0,0,.3,2.381H2.476a6.042,6.042,0,0,1-.233-1.681c0-2.45,1.374-4.442,3.063-4.442a2.1,2.1,0,0,1,.64.1A9.063,9.063,0,0,0,5.2,16.632ZM7.048,5.823a3.583,3.583,0,1,1,3.583,3.583A3.583,3.583,0,0,1,7.048,5.823Zm7.415,13.19H6.8a8.034,8.034,0,0,1-.352-2.381c0-3.3,1.877-5.984,4.184-5.984s4.184,2.685,4.184,5.984a8.027,8.027,0,0,1-.353,2.381Zm1.494-7.366A2.6,2.6,0,0,1,13.452,9.73,4.822,4.822,0,0,0,15.4,6.508a2.544,2.544,0,0,1,.554-.064,2.6,2.6,0,1,1,0,5.2Z" fill="#43425d"></path></g></symbol><symbol id="icon_face-bluring" xmlns="http://www.w3.org/2000/svg" viewBox="0 0 20.971 20.971"><circle data-name="Ellipse 29" cx="9" cy="9" r="9" transform="translate(1.485 1.485)" fill="#a3a0fb"></circle><path data-name="Path 1115" d="M71.627,170.862a1.3,1.3,0,1,0,1.3,1.3A1.3,1.3,0,0,0,71.627,170.862Z" transform="translate(-67.449 -163.864)" fill="#43425d"></path><path data-name="Path 1116" d="M.964,178.988a.964.964,0,1,0,.964.964A.965.965,0,0,0,.964,178.988Z" transform="translate(0 -171.657)" fill="#43425d"></path><path data-name="Path 1117" d="M263.1,154.167a1.981,1.981,0,1,0,1.981,1.981A1.983,1.983,0,0,0,263.1,154.167Z" transform="translate(-250.423 -147.853)" fill="#43425d"></path><circle data-name="Ellipse 23" cx="1.981" cy="1.981" r="1.981" transform="translate(5.912 6.819) rotate(-13.3)" fill="#43425d"></circle><path data-name="Path 1118" d="M263.1,261.117a1.981,1.981,0,1,0,1.981,1.981A1.983,1.983,0,0,0,263.1,261.117Z" transform="translate(-250.423 -250.422)" fill="#43425d"></path><path data-name="Path 1119" d="M379.641,170.862a1.3,1.3,0,1,0,1.3,1.3A1.3,1.3,0,0,0,379.641,170.862Z" transform="translate(-362.848 -163.864)" fill="#43425d"></path><path data-name="Path 1120" d="M465.89,180.916a.964.964,0,1,0-.964-.964A.965.965,0,0,0,465.89,180.916Z" transform="translate(-445.883 -171.657)" fill="#43425d"></path><circle data-name="Ellipse 24" cx="1.981" cy="1.981" r="1.981" transform="translate(5.492 12.675) rotate(-45)" fill="#43425d"></circle><path data-name="Path 1121" d="M71.627,277.813a1.3,1.3,0,1,0,1.3,1.3A1.3,1.3,0,0,0,71.627,277.813Z" transform="translate(-67.449 -266.434)" fill="#43425d"></path><path data-name="Path 1122" d="M.964,285.938a.964.964,0,1,0,.964.964A.965.965,0,0,0,.964,285.938Z" transform="translate(0 -274.226)" fill="#43425d"></path><path data-name="Path 1123" d="M379.641,277.813a1.3,1.3,0,1,0,1.3,1.3A1.3,1.3,0,0,0,379.641,277.813Z" transform="translate(-362.848 -266.434)" fill="#43425d"></path><path data-name="Path 1124" d="M465.89,285.938a.964.964,0,1,0,.964.964A.965.965,0,0,0,465.89,285.938Z" transform="translate(-445.883 -274.226)" fill="#43425d"></path><path data-name="Path 1125" d="M279.11,72.924a1.3,1.3,0,1,0-1.3-1.3A1.3,1.3,0,0,0,279.11,72.924Z" transform="translate(-266.434 -67.449)" fill="#43425d"></path><circle data-name="Ellipse 25" cx="1.297" cy="1.297" r="1.297" transform="translate(15.496 2.881)" fill="#43425d"></circle><path data-name="Path 1126" d="M71.627,378.344a1.3,1.3,0,1,0,1.3,1.3A1.3,1.3,0,0,0,71.627,378.344Z" transform="translate(-67.449 -362.848)" fill="#43425d"></path><path data-name="Path 1127" d="M379.641,378.344a1.3,1.3,0,1,0,1.3,1.3A1.3,1.3,0,0,0,379.641,378.344Z" transform="translate(-362.848 -362.848)" fill="#43425d"></path><path data-name="Path 1128" d="M71.627,70.331a1.3,1.3,0,1,0,1.3,1.3A1.3,1.3,0,0,0,71.627,70.331Z" transform="translate(-67.449 -67.45)" fill="#43425d"></path><circle data-name="Ellipse 26" cx="0.964" cy="0.964" r="0.964" transform="translate(11.712 0)" fill="#43425d"></circle><path data-name="Path 1129" d="M279.11,378.344a1.3,1.3,0,1,0,1.3,1.3A1.3,1.3,0,0,0,279.11,378.344Z" transform="translate(-266.434 -362.848)" fill="#43425d"></path><circle data-name="Ellipse 27" cx="0.964" cy="0.964" r="0.964" transform="translate(11.712 19.043)" fill="#43425d"></circle><path data-name="Path 1130" d="M172.158,72.924a1.3,1.3,0,1,0-1.3-1.3A1.3,1.3,0,0,0,172.158,72.924Z" transform="translate(-163.863 -67.449)" fill="#43425d"></path><path data-name="Path 1131" d="M179.951,1.928a.964.964,0,1,0-.964-.964A.965.965,0,0,0,179.951,1.928Z" transform="translate(-171.656 0)" fill="#43425d"></path><path data-name="Path 1132" d="M172.158,378.344a1.3,1.3,0,1,0,1.3,1.3A1.3,1.3,0,0,0,172.158,378.344Z" transform="translate(-163.863 -362.848)" fill="#43425d"></path><path data-name="Path 1133" d="M179.951,464.926a.964.964,0,1,0,.964.964A.965.965,0,0,0,179.951,464.926Z" transform="translate(-171.656 -445.883)" fill="#43425d"></path></symbol><symbol id="icon_webcam" xmlns="http://www.w3.org/2000/svg" viewBox="0 0 35.731 32.18"><g transform="translate(-0.134 -1.91)"><path data-name="Path 171" d="M34.9,20.355c-3.782-5.791-3.38-11.727-5.2-14.518s-7.256-7.6-20.093.782S.036,24.119,2.042,27.188C11.43,41.56,41.6,30.611,34.9,20.355Z" fill="#efefef"></path><path data-name="Path 172" d="M32.151,5.458a1.5,1.5,0,1,1,1.5-1.5A1.5,1.5,0,0,1,32.151,5.458Zm0-2a.5.5,0,1,0,.5.5A.5.5,0,0,0,32.151,3.458Z" fill="#a4afc1"></path><circle data-name="Ellipse 7" cx="9.25" cy="9.25" r="9.25" transform="translate(8.75 6.75)" fill="#f3f3f1"></circle><circle data-name="Ellipse 8" cx="4.25" cy="4.25" r="4.25" transform="translate(13.75 13.75)" fill="#a3a0fb"></circle><path data-name="Path 173" d="M13.75,8l.906,1.359a2,2,0,0,0,1.664.891h3.359a2,2,0,0,0,1.664-.891L22.25,8a7.848,7.848,0,0,0-8.5,0Z" fill="#a3a0fb"></path><path data-name="Path 174" d="M19,25.19a8.262,8.262,0,0,1-1,.06,9.25,9.25,0,0,1,0-18.5,8.262,8.262,0,0,1,1,.06,9.244,9.244,0,0,0,0,18.38Z" fill="#d5dbe1"></path><path data-name="Path 175" d="M19,22.13a4.088,4.088,0,0,1-1,.12,4.25,4.25,0,0,1,0-8.5,4.088,4.088,0,0,1,1,.12,4.249,4.249,0,0,0,0,8.26Z" fill="#8581ff"></path><path data-name="Path 176" d="M18.32,10.25h-2a1.981,1.981,0,0,1-1.66-.89L13.75,8a8.413,8.413,0,0,1,5.34-1.18A9.715,9.715,0,0,0,15.75,8l.91,1.36A1.981,1.981,0,0,0,18.32,10.25Z" fill="#8581ff"></path><path data-name="Path 177" d="M18,26A10,10,0,1,1,28,16,10.011,10.011,0,0,1,18,26ZM18,7.5A8.5,8.5,0,1,0,26.5,16,8.51,8.51,0,0,0,18,7.5Z"></path><path data-name="Path 178" d="M18,23a5,5,0,1,1,5-5A5.006,5.006,0,0,1,18,23Zm0-8.5A3.5,3.5,0,1,0,21.5,18,3.5,3.5,0,0,0,18,14.5Z"></path><circle data-name="Ellipse 9" cx="1" cy="1" r="1" transform="translate(17 17)"></circle><path data-name="Path 179" d="M19.68,11H16.32a2.745,2.745,0,0,1-2.288-1.225l-.906-1.359,1.248-.832.906,1.359a1.247,1.247,0,0,0,1.04.557h3.359a1.246,1.246,0,0,0,1.04-.557l.906-1.359,1.248.832-.906,1.359A2.742,2.742,0,0,1,19.68,11Z"></path><path data-name="Path 180" d="M12.416,29.874l-.832-1.248a4.293,4.293,0,0,0,1.916-3.58v-.3H15v.3A5.791,5.791,0,0,1,12.416,29.874Z"></path><path data-name="Path 181" d="M23.584,29.874A5.791,5.791,0,0,1,21,25.046v-.3h1.5v.3a4.293,4.293,0,0,0,1.916,3.58Z"></path><path data-name="Path 182" d="M10.75,28.5h14.5V30H10.75Z"></path></g></symbol></svg>