<svg xmlns="http://www.w3.org/2000/svg" width="301.081" height="227.79" viewBox="0 0 301.081 227.79">
  <g id="Layer_2" data-name="Layer 2" transform="translate(32 93)">
    <g id="Layer_1" data-name="Layer 1">
      <path id="Path_1" data-name="Path 1" d="M168.116,80.515a4.307,4.307,0,0,0-1.389,2.848c0,2.64,0,6.947,0,10.281H116.083L136.924,72.8h35.36a15.7,15.7,0,0,1-4.168,7.642m9.726,123.1h0c0-2.709-.556-5.21-.556-6.947a22.091,22.091,0,0,1,5-12.782,11.323,11.323,0,0,0,2.223-4.238c0-1.181-2.154-2.779-3.335-3.682a8.614,8.614,0,0,1-2.154-1.876,2.223,2.223,0,0,1-.347-1.737,2.362,2.362,0,0,1,2.015-1.806,8.892,8.892,0,0,0,3.682-2.64,14.45,14.45,0,0,0,3.821-5.558,3.473,3.473,0,0,0-.625-2.5,11.879,11.879,0,0,1-1.25-2.779,10.906,10.906,0,0,1-.625-3.265,6.043,6.043,0,0,1,0-1.945,17.3,17.3,0,0,1,1.6-5.419,12.227,12.227,0,0,1,7.572-6.53,6.947,6.947,0,0,0,4.724-7.5,12.226,12.226,0,0,0,0-3.2,21.605,21.605,0,0,0-1.32-4.516,52.8,52.8,0,0,0-7.294-11.879c-1.181-1.459-2.431-3.057-3.96-4.654-3.473-4.029-6.947-6.947-8.614-9.031l-1.111-1.042-.973-.764h0a3.821,3.821,0,0,1-.347-1.528h0a16.187,16.187,0,0,1,0-2.223c0-.9,0-2.015,0-3.265V85.03a18.9,18.9,0,0,1,0-1.945h0v-1.32a6.461,6.461,0,0,1,1.806-2.848,13.477,13.477,0,0,0,3.612-6.947,33.483,33.483,0,0,0,1.042-4.516,20.84,20.84,0,0,0,.417-3.2,38.21,38.21,0,0,0,0-10.073,22.034,22.034,0,0,0-.834-4.585,95.242,95.242,0,0,0-3.89-12.3,23.964,23.964,0,0,0-1.459-2.57,7.41,7.41,0,0,0-.973-2.362A191.457,191.457,0,0,0,157.765,1.042a2.779,2.779,0,0,0-.834-.695h-9.239a2.362,2.362,0,0,1,.834.834,188.122,188.122,0,0,1,18.2,31.47H83.363a7.025,7.025,0,0,0-13.894,2.084,6.947,6.947,0,0,0,13.408,2.779h85.864a95.864,95.864,0,0,1,3.89,12.5H105.8l-22.091,22.3h-27.3a7.086,7.086,0,1,0,0,4.724H85.656l22.091-22.3h65.926a43.347,43.347,0,0,1,0,10.351,20.84,20.84,0,0,1-.417,3.2H134.84l-25.356,25.7H72.526a7.041,7.041,0,0,0-13.894,2.292,6.957,6.957,0,0,0,13.547,2.223h96.007c1.806,1.806,5.7,5.558,9.726,10.143H48.629a7.091,7.091,0,1,0,0,4.724H182.01a52.865,52.865,0,0,1,7.433,12.227H124.211L105.8,144.149H82.807v-9.587a6.947,6.947,0,1,0-4.585,0v14.311h29.594l18.34-18.618h64.468a11.323,11.323,0,0,1,0,3.4,8.475,8.475,0,0,1-5.9,9.239,10.143,10.143,0,0,0-6.53,5.627,17.507,17.507,0,0,0-1.528,4.793H54.047L37.305,136.368H13.894a6.947,6.947,0,0,0-6.947-4.377,6.947,6.947,0,1,0,0,13.894,6.947,6.947,0,0,0,6.947-4.793H35.36L52.1,158.043H177.147c.834,2.223,2.015,3.126,2.015,5a13.894,13.894,0,0,1-3.89,6.322H138.939l-22.994,23.272h-28.9a6.947,6.947,0,1,0,0,4.724h30.5l22.994-23.272H170.13c1.389,1.32,5.627,3.543,5.488,6.322,0,4.029-6.947,8.2-6.947,16.951,0,7.572,4.516,23.62-3.4,29.108h0c1.737-.417,3.612-.764,5.7-1.112,8.406-1.389,8.128-10.281,6.947-21.744m1.25-118.862v2.57l65.579-21.6L179.092,83.363Zm0,10.073,66.274,8.753L179.3,90.31ZM300.246,28.2,200.488,73.776l99.758-26.4Zm0,22.994L187.011,88.5l104.2,20.424,9.031,1.737Zm0,63.148L197.154,100.453l103.092,33ZM297.676,3.821A12.227,12.227,0,0,0,288.853,0H161.308a188.749,188.749,0,0,1,17.784,31.122v.556c0,.625.556,1.181.764,1.806h0l.834,2.015a81,81,0,0,1,4.238,13.13,41.68,41.68,0,0,1,.9,4.793,43.7,43.7,0,0,1,0,10.768,23.622,23.622,0,0,1-.417,3.2,39.462,39.462,0,0,1-1.042,4.863,24.036,24.036,0,0,1-2.779,6.322L301.08,23.9V12.366a12.227,12.227,0,0,0-3.4-8.545M190.207,106.774c1.389,1.667,2.709,3.265,3.89,4.793a51.13,51.13,0,0,1,7.364,12.5A21.327,21.327,0,0,1,202.85,129a16.6,16.6,0,0,1,0,3.682,10.212,10.212,0,0,1-6.947,10.768,8.962,8.962,0,0,0-5.488,4.654,20.353,20.353,0,0,0-1.32,4.238,9.306,9.306,0,0,0,0,1.389,10.906,10.906,0,0,0,.556,2.779,8.547,8.547,0,0,0,.764,1.6h0a7.642,7.642,0,0,1,1.111,3.612,13.894,13.894,0,0,1-3.96,6.947,17.715,17.715,0,0,1-4.377,3.682c2.015,1.528,4.863,3.682,4.654,6.947A12.435,12.435,0,0,1,185,185.275a19.521,19.521,0,0,0-4.377,11.046,59.675,59.675,0,0,0,.417,6.461v.417c.9,8.406,2.223,20.841-6.252,24.592H288.853a12.3,12.3,0,0,0,12.227-12.435V137.688L184.163,100.244c1.806,1.806,3.89,4.029,6.044,6.53" transform="translate(-32 -93)" fill="#c7c6ce"/>
    </g>
  </g>
</svg>
