<?xml version="1.0" encoding="UTF-8" standalone="no"?><svg xmlns="http://www.w3.org/2000/svg" xmlns:xlink="http://www.w3.org/1999/xlink"><symbol id="icon_person" xmlns="http://www.w3.org/2000/svg" viewBox="0 0 27.983 33.54"><g data-name="user(1)" transform="translate(0 0)"><path data-name="Path 1293" d="M95.11,16.157a7.816,7.816,0,0,0,5.712-2.367,7.816,7.816,0,0,0,2.366-5.712,7.818,7.818,0,0,0-2.367-5.712,8.076,8.076,0,0,0-11.423,0,7.817,7.817,0,0,0-2.367,5.711A7.816,7.816,0,0,0,89.4,13.79,7.818,7.818,0,0,0,95.11,16.157Zm0,0" transform="translate(-81.331)"></path><path data-name="Path 1294" d="M27.915,256.906a19.954,19.954,0,0,0-.272-2.119,16.7,16.7,0,0,0-.521-2.131,10.525,10.525,0,0,0-.876-1.987,7.5,7.5,0,0,0-1.321-1.721,5.824,5.824,0,0,0-1.9-1.192,6.558,6.558,0,0,0-2.422-.438,2.459,2.459,0,0,0-1.313.557c-.394.257-.854.553-1.368.882a7.837,7.837,0,0,1-1.77.78,6.872,6.872,0,0,1-4.329,0,7.819,7.819,0,0,1-1.768-.779c-.509-.325-.97-.622-1.369-.882a2.455,2.455,0,0,0-1.312-.557,6.549,6.549,0,0,0-2.422.439,5.819,5.819,0,0,0-1.9,1.192,7.5,7.5,0,0,0-1.32,1.721,10.545,10.545,0,0,0-.876,1.987,16.738,16.738,0,0,0-.521,2.131,19.882,19.882,0,0,0-.272,2.12c-.045.642-.067,1.308-.067,1.981A5.569,5.569,0,0,0,1.654,263.1a5.955,5.955,0,0,0,4.262,1.555h16.15a5.953,5.953,0,0,0,4.262-1.555,5.567,5.567,0,0,0,1.654-4.214c0-.676-.023-1.342-.068-1.981Zm0,0" transform="translate(0 -231.115)"></path></g></symbol><symbol id="icon_check" xmlns="http://www.w3.org/2000/svg" viewBox="0 0 18.353 13.355"><g transform="translate(0 -55.188)"><path data-name="Path 1002" d="M17.815,58.323,8.133,68a1.837,1.837,0,0,1-2.6,0l-5-5a1.837,1.837,0,0,1,2.6-2.6l3.7,3.7,8.383-8.383a1.837,1.837,0,0,1,2.6,2.6Z"></path></g></symbol><symbol id="icon_close" xmlns="http://www.w3.org/2000/svg" width="9.683" height="9.683" viewBox="0 0 9.683 9.683"><g transform="translate(4.842 -2.013) rotate(45)"><line x2="9.695" transform="translate(0 4.847)" stroke-linecap="round" stroke-width="2"></line><line x2="9.695" transform="translate(4.847) rotate(90)" stroke-linecap="round" stroke-width="2"></line></g></symbol><symbol id="icon_crown" xmlns="http://www.w3.org/2000/svg" width="12.377" height="9.707" viewBox="0 0 12.377 9.707"><path d="M15.936,15.727h-9.5a.442.442,0,0,1-.436-.368l-1-5.894a.444.444,0,0,1,.172-.429A.439.439,0,0,1,5.637,9L8.506,10.41l2.3-4.178a.461.461,0,0,1,.774,0l2.3,4.178L16.74,9a.442.442,0,0,1,.631.47l-1,5.894a.443.443,0,0,1-.436.368Zm-9.121-.884h8.748l.792-4.673-2.472,1.219a.44.44,0,0,1-.583-.183L11.189,7.362,9.077,11.206a.44.44,0,0,1-.583.183L6.023,10.17Z" transform="translate(-5 -6.021)"></path></symbol><symbol id="icon_phone-call" xmlns="http://www.w3.org/2000/svg" width="10.752" height="10.753" viewBox="0 0 10.752 10.753"><path d="M9.756,16.753l-.079,0A10.551,10.551,0,0,1,0,7.082a1,1,0,0,1,.261-.753.968.968,0,0,1,.71-.314L3.1,6a.98.98,0,0,1,.953.739L4.493,8.5a.971.971,0,0,1-.364,1.019l-.881.656a8.3,8.3,0,0,0,3.286,3.3l.68-.9a.981.981,0,0,1,1.021-.361l1.773.44a.975.975,0,0,1,.744.947v2.173a.958.958,0,0,1-.311.71A1.012,1.012,0,0,1,9.756,16.753ZM3.1,6.6l-2.12.015A.375.375,0,0,0,.7,6.734a.4.4,0,0,0-.1.3,9.95,9.95,0,0,0,9.124,9.115.407.407,0,0,0,.314-.106.362.362,0,0,0,.119-.271V13.6a.38.38,0,0,0-.29-.367L8.092,12.8a.382.382,0,0,0-.4.14l-.834,1.1a.3.3,0,0,1-.374.086A8.886,8.886,0,0,1,2.6,10.22a.3.3,0,0,1,.088-.373l1.084-.808a.374.374,0,0,0,.141-.394L3.471,6.885A.383.383,0,0,0,3.1,6.6Z" transform="translate(0 -6)"></path></symbol><symbol id="icon_cctv" xmlns="http://www.w3.org/2000/svg" width="13.625" height="10.07" viewBox="0 0 13.625 10.07"><g transform="translate(1.185 2.37)"><g transform="translate(0 0)"><path d="M53.625,149.333H42.962a.3.3,0,0,0-.3.3v1.777a5.628,5.628,0,1,0,11.255,0v-1.777A.3.3,0,0,0,53.625,149.333Zm-.3,2.073a5.035,5.035,0,1,1-10.07,0v-1.481h10.07Z" transform="translate(-42.666 -149.333)"></path></g></g><g transform="translate(4.147 3.554)"><g transform="translate(0 0)"><path d="M152,192a2.666,2.666,0,1,0,2.666,2.666A2.669,2.669,0,0,0,152,192Zm0,4.739a2.073,2.073,0,1,1,2.073-2.073A2.076,2.076,0,0,1,152,196.739Z" transform="translate(-149.333 -192)"></path></g></g><g transform="translate(5.331 4.739)"><g transform="translate(0 0)"><path d="M193.481,234.667a1.481,1.481,0,1,0,1.481,1.481A1.483,1.483,0,0,0,193.481,234.667Zm0,2.37a.889.889,0,1,1,.889-.889A.89.89,0,0,1,193.481,237.036Z" transform="translate(-192 -234.667)"></path></g></g><g transform="translate(0 0)"><path d="M13.329,64H.3a.3.3,0,0,0-.3.3v1.777a.89.89,0,0,0,.889.889H12.736a.89.89,0,0,0,.889-.889V64.3A.3.3,0,0,0,13.329,64Zm-.3,2.073a.3.3,0,0,1-.3.3H.889a.3.3,0,0,1-.3-.3V64.592h12.44Z" transform="translate(0 -64)"></path></g><g transform="translate(10.07 4.147)"><g transform="translate(0 0)"><circle cx="0.296" cy="0.296" r="0.296"></circle></g></g></symbol><symbol id="icon_location-pin" xmlns="http://www.w3.org/2000/svg" width="9.578" height="12.77" viewBox="0 0 9.578 12.77"><path d="M7.789,12.77a.267.267,0,0,1-.176-.067C7.424,12.537,3,8.59,3,4.789a4.789,4.789,0,1,1,9.578,0c0,3.8-4.424,7.748-4.613,7.915A.267.267,0,0,1,7.789,12.77Zm0-12.238A4.262,4.262,0,0,0,3.532,4.789c0,3.149,3.433,6.576,4.257,7.353.824-.777,4.257-4.2,4.257-7.353A4.262,4.262,0,0,0,7.789.532Z" transform="translate(-3)"></path><path d="M9.66,9.321a2.66,2.66,0,1,1,2.66-2.66A2.664,2.664,0,0,1,9.66,9.321Zm0-4.789A2.128,2.128,0,1,0,11.789,6.66,2.131,2.131,0,0,0,9.66,4.532Z" transform="translate(-4.872 -1.872)"></path></symbol><symbol id="icon_map-pin" xmlns="http://www.w3.org/2000/svg" width="16.721" height="20.958" viewBox="0 0 16.721 20.958"><path d="M57.361.005A8.363,8.363,0,0,0,49.45,9.949h0s.013.09.056.262a8.38,8.38,0,0,0,.563,1.659,24.215,24.215,0,0,0,7.125,8.921.726.726,0,0,0,.928,0,24.19,24.19,0,0,0,7.129-8.925,8.025,8.025,0,0,0,.563-1.659c.039-.168.056-.262.056-.262h0A8.365,8.365,0,0,0,57.361.005Zm.3,12.513a4.061,4.061,0,1,1,4.061-4.061A4.06,4.06,0,0,1,57.658,12.518Z" transform="translate(-49.299 0)"></path><path d="M57.361.005A8.363,8.363,0,0,0,49.45,9.949h0s.013.09.056.262a8.38,8.38,0,0,0,.563,1.659,24.215,24.215,0,0,0,7.125,8.921.726.726,0,0,0,.928,0,24.19,24.19,0,0,0,7.129-8.925,8.025,8.025,0,0,0,.563-1.659c.039-.168.056-.262.056-.262h0A8.365,8.365,0,0,0,57.361.005Zm.3,12.513a4.061,4.061,0,1,1,4.061-4.061A4.06,4.06,0,0,1,57.658,12.518Z" transform="translate(-49.299 0)" opacity="0.25"></path></symbol></svg>