<svg xmlns="http://www.w3.org/2000/svg" width="12.377" height="9.707" viewBox="0 0 12.377 9.707"><path d="M15.936,15.727h-9.5a.442.442,0,0,1-.436-.368l-1-5.894a.444.444,0,0,1,.172-.429A.439.439,0,0,1,5.637,9L8.506,10.41l2.3-4.178a.461.461,0,0,1,.774,0l2.3,4.178L16.74,9a.442.442,0,0,1,.631.47l-1,5.894a.443.443,0,0,1-.436.368Zm-9.121-.884h8.748l.792-4.673-2.472,1.219a.44.44,0,0,1-.583-.183L11.189,7.362,9.077,11.206a.44.44,0,0,1-.583.183L6.023,10.17Z" transform="translate(-5 -6.021)" fill="#888"/></svg>