<svg xmlns="http://www.w3.org/2000/svg" width="9.578" height="12.77" viewBox="0 0 9.578 12.77"><path d="M7.789,12.77a.267.267,0,0,1-.176-.067C7.424,12.537,3,8.59,3,4.789a4.789,4.789,0,1,1,9.578,0c0,3.8-4.424,7.748-4.613,7.915A.267.267,0,0,1,7.789,12.77Zm0-12.238A4.262,4.262,0,0,0,3.532,4.789c0,3.149,3.433,6.576,4.257,7.353.824-.777,4.257-4.2,4.257-7.353A4.262,4.262,0,0,0,7.789.532Z" transform="translate(-3)" fill="#888"/><path d="M9.66,9.321a2.66,2.66,0,1,1,2.66-2.66A2.664,2.664,0,0,1,9.66,9.321Zm0-4.789A2.128,2.128,0,1,0,11.789,6.66,2.131,2.131,0,0,0,9.66,4.532Z" transform="translate(-4.872 -1.872)" fill="#888"/></svg>