<svg xmlns="http://www.w3.org/2000/svg" width="16.721" height="20.958" viewBox="0 0 16.721 20.958"><path d="M57.361.005A8.363,8.363,0,0,0,49.45,9.949h0s.013.09.056.262a8.38,8.38,0,0,0,.563,1.659,24.215,24.215,0,0,0,7.125,8.921.726.726,0,0,0,.928,0,24.19,24.19,0,0,0,7.129-8.925,8.025,8.025,0,0,0,.563-1.659c.039-.168.056-.262.056-.262h0A8.365,8.365,0,0,0,57.361.005Zm.3,12.513a4.061,4.061,0,1,1,4.061-4.061A4.06,4.06,0,0,1,57.658,12.518Z" transform="translate(-49.299 0)" fill="#ffe600"/><path d="M57.361.005A8.363,8.363,0,0,0,49.45,9.949h0s.013.09.056.262a8.38,8.38,0,0,0,.563,1.659,24.215,24.215,0,0,0,7.125,8.921.726.726,0,0,0,.928,0,24.19,24.19,0,0,0,7.129-8.925,8.025,8.025,0,0,0,.563-1.659c.039-.168.056-.262.056-.262h0A8.365,8.365,0,0,0,57.361.005Zm.3,12.513a4.061,4.061,0,1,1,4.061-4.061A4.06,4.06,0,0,1,57.658,12.518Z" transform="translate(-49.299 0)" opacity="0.25"/></svg>