<svg xmlns="http://www.w3.org/2000/svg" viewBox="0 0 27.983 33.54">
  <g id="user_1_" data-name="user(1)" transform="translate(0 0)">
    <path id="Path_1293" data-name="Path 1293" d="M95.11,16.157a7.816,7.816,0,0,0,5.712-2.367,7.816,7.816,0,0,0,2.366-5.712,7.818,7.818,0,0,0-2.367-5.712,8.076,8.076,0,0,0-11.423,0,7.817,7.817,0,0,0-2.367,5.711A7.816,7.816,0,0,0,89.4,13.79,7.818,7.818,0,0,0,95.11,16.157Zm0,0" transform="translate(-81.331)"/>
    <path id="Path_1294" data-name="Path 1294" d="M27.915,256.906a19.954,19.954,0,0,0-.272-2.119,16.7,16.7,0,0,0-.521-2.131,10.525,10.525,0,0,0-.876-1.987,7.5,7.5,0,0,0-1.321-1.721,5.824,5.824,0,0,0-1.9-1.192,6.558,6.558,0,0,0-2.422-.438,2.459,2.459,0,0,0-1.313.557c-.394.257-.854.553-1.368.882a7.837,7.837,0,0,1-1.77.78,6.872,6.872,0,0,1-4.329,0,7.819,7.819,0,0,1-1.768-.779c-.509-.325-.97-.622-1.369-.882a2.455,2.455,0,0,0-1.312-.557,6.549,6.549,0,0,0-2.422.439,5.819,5.819,0,0,0-1.9,1.192,7.5,7.5,0,0,0-1.32,1.721,10.545,10.545,0,0,0-.876,1.987,16.738,16.738,0,0,0-.521,2.131,19.882,19.882,0,0,0-.272,2.12c-.045.642-.067,1.308-.067,1.981A5.569,5.569,0,0,0,1.654,263.1a5.955,5.955,0,0,0,4.262,1.555h16.15a5.953,5.953,0,0,0,4.262-1.555,5.567,5.567,0,0,0,1.654-4.214c0-.676-.023-1.342-.068-1.981Zm0,0" transform="translate(0 -231.115)"/>
  </g>
</svg>
