<svg xmlns="http://www.w3.org/2000/svg" width="10.752" height="10.753" viewBox="0 0 10.752 10.753"><path d="M9.756,16.753l-.079,0A10.551,10.551,0,0,1,0,7.082a1,1,0,0,1,.261-.753.968.968,0,0,1,.71-.314L3.1,6a.98.98,0,0,1,.953.739L4.493,8.5a.971.971,0,0,1-.364,1.019l-.881.656a8.3,8.3,0,0,0,3.286,3.3l.68-.9a.981.981,0,0,1,1.021-.361l1.773.44a.975.975,0,0,1,.744.947v2.173a.958.958,0,0,1-.311.71A1.012,1.012,0,0,1,9.756,16.753ZM3.1,6.6l-2.12.015A.375.375,0,0,0,.7,6.734a.4.4,0,0,0-.1.3,9.95,9.95,0,0,0,9.124,9.115.407.407,0,0,0,.314-.106.362.362,0,0,0,.119-.271V13.6a.38.38,0,0,0-.29-.367L8.092,12.8a.382.382,0,0,0-.4.14l-.834,1.1a.3.3,0,0,1-.374.086A8.886,8.886,0,0,1,2.6,10.22a.3.3,0,0,1,.088-.373l1.084-.808a.374.374,0,0,0,.141-.394L3.471,6.885A.383.383,0,0,0,3.1,6.6Z" transform="translate(0 -6)" fill="#888"/></svg>